<svg width="112.196" height="112.196" xmlns="http://www.w3.org/2000/svg">

 <g>
  <title>background</title>
  <rect fill="none" id="canvas_background" height="402" width="582" y="-1" x="-1"/>
 </g>
 <g>
  <title>Layer 1</title>
  <g id="svg_1">
   <g id="svg_2">
    <circle fill="#DC4E41" r="56.098" id="XMLID_30_" cy="56.097" cx="56.098"/>
   </g>
   <g id="svg_3">
    <path id="svg_4" fill="#DC4E41" d="m19.531,56.608c-0.199,9.652 6.449,18.863 15.594,21.867c8.614,2.894 19.205,0.729 24.937,-6.648c4.185,-5.169 5.136,-12.06 4.683,-18.498c-7.377,-0.066 -14.754,-0.044 -22.12,-0.033c-0.012,2.628 0,5.246 0.011,7.874c4.417,0.122 8.835,0.066 13.252,0.155c-1.115,3.821 -3.655,7.377 -7.51,8.757c-7.443,3.28 -16.94,-1.005 -19.282,-8.813c-2.827,-7.477 1.801,-16.5 9.442,-18.675c4.738,-1.667 9.619,0.21 13.673,2.673c2.054,-1.922 3.976,-3.976 5.864,-6.052c-4.606,-3.854 -10.525,-6.217 -16.61,-5.698c-11.939,0.142 -22.387,11.164 -21.934,23.091z"/>
    <path id="svg_5" fill="#DC4E41" d="m79.102,46.668c-0.022,2.198 -0.045,4.407 -0.056,6.604c-2.209,0.022 -4.406,0.033 -6.604,0.044c0,2.198 0,4.384 0,6.582c2.198,0.011 4.407,0.022 6.604,0.045c0.022,2.198 0.022,4.395 0.044,6.604c2.187,0 4.385,-0.011 6.582,0c0.012,-2.209 0.022,-4.406 0.045,-6.615c2.197,-0.011 4.406,-0.022 6.604,-0.033c0,-2.198 0,-4.384 0,-6.582c-2.197,-0.011 -4.406,-0.022 -6.604,-0.044c-0.012,-2.198 -0.033,-4.407 -0.045,-6.604c-2.197,-0.001 -4.384,-0.001 -6.57,-0.001z"/>
    <g id="svg_6">
     <path id="svg_7" fill="#FFFFFF" d="m19.531,56.608c-0.453,-11.927 9.994,-22.949 21.933,-23.092c6.085,-0.519 12.005,1.844 16.61,5.698c-1.889,2.077 -3.811,4.13 -5.864,6.052c-4.054,-2.463 -8.935,-4.34 -13.673,-2.673c-7.642,2.176 -12.27,11.199 -9.442,18.675c2.342,7.808 11.839,12.093 19.282,8.813c3.854,-1.38 6.395,-4.936 7.51,-8.757c-4.417,-0.088 -8.835,-0.033 -13.252,-0.155c-0.011,-2.628 -0.022,-5.246 -0.011,-7.874c7.366,-0.011 14.743,-0.033 22.12,0.033c0.453,6.439 -0.497,13.33 -4.683,18.498c-5.732,7.377 -16.322,9.542 -24.937,6.648c-9.143,-3.003 -15.792,-12.214 -15.593,-21.866z"/>
     <path id="svg_8" fill="#FFFFFF" d="m79.102,46.668c2.187,0 4.373,0 6.57,0c0.012,2.198 0.033,4.407 0.045,6.604c2.197,0.022 4.406,0.033 6.604,0.044c0,2.198 0,4.384 0,6.582c-2.197,0.011 -4.406,0.022 -6.604,0.033c-0.022,2.209 -0.033,4.406 -0.045,6.615c-2.197,-0.011 -4.396,0 -6.582,0c-0.021,-2.209 -0.021,-4.406 -0.044,-6.604c-2.197,-0.023 -4.406,-0.033 -6.604,-0.045c0,-2.198 0,-4.384 0,-6.582c2.198,-0.011 4.396,-0.022 6.604,-0.044c0.011,-2.196 0.033,-4.405 0.056,-6.603z"/>
    </g>
   </g>
  </g>
  <g id="svg_9"/>
  <g id="svg_10"/>
  <g id="svg_11"/>
  <g id="svg_12"/>
  <g id="svg_13"/>
  <g id="svg_14"/>
  <g id="svg_15"/>
  <g id="svg_16"/>
  <g id="svg_17"/>
  <g id="svg_18"/>
  <g id="svg_19"/>
  <g id="svg_20"/>
  <g id="svg_21"/>
  <g id="svg_22"/>
  <g id="svg_23"/>
 </g>
</svg>