<?xml version="1.0" encoding="utf-8"?>
<!-- Svg Vector Icons : http://www.onlinewebfonts.com/icon -->
<!DOCTYPE svg PUBLIC "-//W3C//DTD SVG 1.1//EN" "http://www.w3.org/Graphics/SVG/1.1/DTD/svg11.dtd">
<svg version="1.1" xmlns="http://www.w3.org/2000/svg" xmlns:xlink="http://www.w3.org/1999/xlink" x="0px" y="0px" viewBox="0 0 1000 1000" enable-background="new 0 0 1000 1000" xml:space="preserve">
<metadata> Svg Vector Icons : http://www.onlinewebfonts.com/icon </metadata>
<g><path d="M920,797.5c0,9.3-8.2,17.5-17.5,17.5h-805c-9.3,0-17.5-8.2-17.5-17.5v-420c11.5,13.1,24.1,25.2,37.7,36.1c78.2,60.2,157,121.4,233,184.8c41,34.5,91.9,76.6,148.7,76.6h0.5h0.5c56.9,0,107.7-42.1,148.8-76.6c76-63.4,154.8-124.7,233-184.8c13.7-10.9,26.2-23,37.7-36.1L920,797.5L920,797.5z M920,222.7c0,46.5-44.8,107.2-80.4,135.1C766.3,415.2,693,473.2,620.3,531.2c-29,23.5-81.5,73.8-119.8,73.8H500h-0.5c-38.3,0-90.8-50.3-119.8-73.8c-72.7-58-146-115.9-219.3-173.3C111.2,319,80,264.9,80,202.5c0-9.3,8.2-17.5,17.5-17.5h805C923.3,185,920,209.1,920,222.7z M990,202.5c0-48.1-39.4-87.5-87.5-87.5h-805C49.4,115,10,154.4,10,202.5v595c0,48.1,39.4,87.5,87.5,87.5h805c48.1,0,87.5-39.4,87.5-87.5V202.5z"/></g>
</svg>