<?xml version="1.0" encoding="utf-8"?>
<!-- Generator: Adobe Illustrator 16.0.2, SVG Export Plug-In . SVG Version: 6.00 Build 0)  -->
<!DOCTYPE svg PUBLIC "-//W3C//DTD SVG 1.1//EN" "http://www.w3.org/Graphics/SVG/1.1/DTD/svg11.dtd">
<svg version="1.1" id="Layer_1" xmlns="http://www.w3.org/2000/svg" xmlns:xlink="http://www.w3.org/1999/xlink" x="0px" y="0px"
	 width="512px" height="512px" viewBox="0 0 512 512" enable-background="new 0 0 512 512" xml:space="preserve">
<path d="M448,64H64C28.656,64,0,92.656,0,128v256c0,35.344,28.656,64,64,64h384c35.344,0,64-28.656,64-64V128
	C512,92.656,483.344,64,448,64z M342.656,234.781l135.469-116.094c0.938,3,1.875,6,1.875,9.313v256c0,2.219-0.844,4.188-1.281,6.281
	L342.656,234.781z M448,96c2.125,0,4,0.813,6,1.219L256,266.938L58,97.219C60,96.813,61.875,96,64,96H448z M33.266,390.25
	C32.828,388.156,32,386.219,32,384V128c0-3.313,0.953-6.313,1.891-9.313L169.313,234.75L33.266,390.25z M64,416
	c-3.234,0-6.172-0.938-9.125-1.844l138.75-158.563l51.969,44.531C248.578,302.719,252.297,304,256,304s7.422-1.281,10.406-3.875
	l51.969-44.531l138.75,158.563C454.188,415.063,451.25,416,448,416H64z"/>
</svg>
