<?xml version="1.0" encoding="UTF-8" standalone="no"?>
<!-- Created with Inkscape (http://www.inkscape.org/) -->

<svg
   xmlns:dc="http://purl.org/dc/elements/1.1/"
   xmlns:cc="http://creativecommons.org/ns#"
   xmlns:rdf="http://www.w3.org/1999/02/22-rdf-syntax-ns#"
   xmlns:svg="http://www.w3.org/2000/svg"
   xmlns="http://www.w3.org/2000/svg"
   xmlns:sodipodi="http://sodipodi.sourceforge.net/DTD/sodipodi-0.dtd"
   xmlns:inkscape="http://www.inkscape.org/namespaces/inkscape"
   id="svg2"
   version="1.1"
   inkscape:version="0.91 r13725"
   xml:space="preserve"
   width="600"
   height="500"
   viewBox="0 0 600 499.99999"
   sodipodi:docname="logo.svg"><metadata
     id="metadata8"><rdf:RDF><cc:Work
         rdf:about=""><dc:format>image/svg+xml</dc:format><dc:type
           rdf:resource="http://purl.org/dc/dcmitype/StillImage" /><dc:title></dc:title></cc:Work></rdf:RDF></metadata><defs
     id="defs6"><filter
       style="color-interpolation-filters:sRGB"
       inkscape:label="Drop Shadow"
       id="filter4203"><feFlood
         flood-opacity="0.498039"
         flood-color="rgb(72,72,72)"
         result="flood"
         id="feFlood4205" /><feComposite
         in="flood"
         in2="SourceGraphic"
         operator="in"
         result="composite1"
         id="feComposite4207" /><feGaussianBlur
         in="composite1"
         stdDeviation="5"
         result="blur"
         id="feGaussianBlur4209" /><feOffset
         dx="5"
         dy="-5"
         result="offset"
         id="feOffset4211" /><feComposite
         in="SourceGraphic"
         in2="offset"
         operator="over"
         result="composite2"
         id="feComposite4213" /></filter></defs><sodipodi:namedview
     pagecolor="#ffffff"
     bordercolor="#666666"
     borderopacity="1"
     objecttolerance="10"
     gridtolerance="10"
     guidetolerance="10"
     inkscape:pageopacity="0"
     inkscape:pageshadow="2"
     inkscape:window-width="3710"
     inkscape:window-height="2112"
     id="namedview4"
     showgrid="false"
     inkscape:zoom="3.764"
     inkscape:cx="300"
     inkscape:cy="250"
     inkscape:window-x="130"
     inkscape:window-y="48"
     inkscape:window-maximized="1"
     inkscape:current-layer="g10" /><g
     id="g10"
     inkscape:groupmode="layer"
     inkscape:label="ink_ext_XXXXXX"
     transform="matrix(1.25,0,0,-1.25,0,499.99999)"><path
       inkscape:connector-curvature="0"
       id="path14"
       style="fill:#52ade5;fill-opacity:1;fill-rule:nonzero;stroke:none;filter:url(#filter4203)"
       d="m 400,286.592 c -14.716,-6.528 -30.534,-10.938 -47.132,-12.922 16.94,10.156 29.954,26.238 36.082,45.402 -15.858,-9.406 -33.42,-16.234 -52.114,-19.914 -14.968,15.95 -36.296,25.914 -59.9,25.914 -45.32,0 -82.0656,-36.742 -82.0656,-82.062 0,-6.432 0.7256,-12.696 2.125,-18.702 -68.2032,3.422 -128.6736,36.094 -169.1478,85.744 -7.0648,-12.12 -11.11166,-26.218 -11.11166,-41.258 0,-28.472 14.48746,-53.59 36.50866,-68.306 -13.4524,0.426 -26.107,4.118 -37.17038,10.264 -0.0078,-0.342 -0.0078,-0.684 -0.0078,-1.032 0,-39.7606 28.2882,-72.927 65.829,-80.4684 -6.8852,-1.875 -14.1352,-2.879 -21.6196,-2.879 -5.2882,0 -10.429,0.5156 -15.4406,1.4728 C 55.2782,95.2438 85.5852,71.5156 121.496,70.8562 93.4102,48.8438 58.0258,35.7242 19.57656,35.7242 12.95234,35.7242 6.41954,36.114 0,36.8718 36.3172,13.58828 79.454,0 125.7976,0 276.744,0 359.29,125.0476 359.29,233.494 c 0,3.558 -0.082,7.096 -0.24,10.616 16.036,11.572 29.948,26.024 40.95,42.482"
       transform="matrix(0.99998502,0,0,1.0252507,39.999401,33.328024)" /></g></svg>
